<?xml version="1.0" encoding="UTF-8" standalone="no"?>
<!DOCTYPE svg PUBLIC "-//W3C//DTD SVG 1.1//EN"
 "http://www.w3.org/Graphics/SVG/1.1/DTD/svg11.dtd">
<!-- Generated by graphviz version 2.40.1 (20161225.0304)
 -->
<!-- Title: git_basics Pages: 1 -->
<svg width="2457pt" height="1055pt"
 viewBox="0.00 0.00 2456.50 1055.00" xmlns="http://www.w3.org/2000/svg" xmlns:xlink="http://www.w3.org/1999/xlink">
<g id="graph0" class="graph" transform="scale(1 1) rotate(0) translate(4 1051)">
<title>git_basics</title>
<polygon fill="#ffffff" stroke="transparent" points="-4,4 -4,-1051 2452.5,-1051 2452.5,4 -4,4"/>
<!-- Step_1 -->
<g id="node1" class="node">
<title>Step_1</title>
<polygon fill="#ffffff" stroke="#000000" points="569.5,-1047 13.5,-1047 13.5,-755 569.5,-755 569.5,-1047"/>
<polygon fill="#92bde4" stroke="transparent" points="21.5,-943 21.5,-1043 561.5,-1043 561.5,-943 21.5,-943"/>
<polygon fill="none" stroke="#000000" points="21.5,-943 21.5,-1043 561.5,-1043 561.5,-943 21.5,-943"/>
<text text-anchor="start" x="231.1915" y="-983.5" font-family="Helvetica,Arial,sans-serif" font-size="35.00" fill="#000000"> </text>
<text text-anchor="start" x="240.918" y="-983.5" font-family="Helvetica,Arial,sans-serif" font-weight="bold" font-size="35.00" fill="#000000">Step 1:</text>
<polygon fill="#e3eef8" stroke="transparent" points="21.5,-759 21.5,-943 561.5,-943 561.5,-759 21.5,-759"/>
<polygon fill="none" stroke="#000000" points="21.5,-759 21.5,-943 561.5,-943 561.5,-759 21.5,-759"/>
<text text-anchor="start" x="50.3623" y="-882.5" font-family="Helvetica,Arial,sans-serif" font-size="35.00" fill="#000000">Identify which climate variables</text>
<text text-anchor="start" x="95.031" y="-840.5" font-family="Helvetica,Arial,sans-serif" font-size="35.00" fill="#000000">to use and how these are</text>
<text text-anchor="start" x="191.3492" y="-798.5" font-family="Helvetica,Arial,sans-serif" font-size="35.00" fill="#000000">implemented</text>
</g>
<!-- Step_2 -->
<g id="node2" class="node">
<title>Step_2</title>
<polygon fill="#ffffff" stroke="#000000" points="573.5,-643 9.5,-643 9.5,-351 573.5,-351 573.5,-643"/>
<polygon fill="#92bde4" stroke="transparent" points="17.5,-539 17.5,-639 565.5,-639 565.5,-539 17.5,-539"/>
<polygon fill="none" stroke="#000000" points="17.5,-539 17.5,-639 565.5,-639 565.5,-539 17.5,-539"/>
<text text-anchor="start" x="231.1915" y="-579.5" font-family="Helvetica,Arial,sans-serif" font-size="35.00" fill="#000000"> </text>
<text text-anchor="start" x="240.918" y="-579.5" font-family="Helvetica,Arial,sans-serif" font-weight="bold" font-size="35.00" fill="#000000">Step 2:</text>
<polygon fill="#e3eef8" stroke="transparent" points="17.5,-355 17.5,-539 565.5,-539 565.5,-355 17.5,-355"/>
<polygon fill="none" stroke="#000000" points="17.5,-355 17.5,-539 565.5,-539 565.5,-355 17.5,-355"/>
<text text-anchor="start" x="46.444" y="-478.5" font-family="Helvetica,Arial,sans-serif" font-size="35.00" fill="#000000">Provide shapefile of your model</text>
<text text-anchor="start" x="97.0138" y="-436.5" font-family="Helvetica,Arial,sans-serif" font-size="35.00" fill="#000000">domain and fill out model</text>
<text text-anchor="start" x="224.4015" y="-394.5" font-family="Helvetica,Arial,sans-serif" font-size="35.00" fill="#000000">template</text>
</g>
<!-- Step_1&#45;&gt;Step_2 -->
<g id="edge1" class="edge">
<title>Step_1&#45;&gt;Step_2</title>
<path fill="none" stroke="#000000" stroke-width="3" d="M291.5,-754.8612C291.5,-721.8985 291.5,-686.7819 291.5,-653.416"/>
<polygon fill="#000000" stroke="#000000" stroke-width="3" points="295.0001,-653.1215 291.5,-643.1215 288.0001,-653.1216 295.0001,-653.1215"/>
</g>
<!-- Step_n -->
<g id="node3" class="node">
<title>Step_n</title>
<polygon fill="#f6b979" stroke="#000000" points="1390.5,-972.6006 1030.5,-972.6006 1030.5,-829.3994 1390.5,-829.3994 1390.5,-972.6006"/>
<text text-anchor="middle" x="1210.5" y="-889.6" font-family="Helvetica,Arial,sans-serif" font-size="38.00" fill="#000000">Is model spatial?</text>
</g>
<!-- Step_1&#45;&gt;Step_n -->
<!-- Step_3 -->
<g id="node4" class="node">
<title>Step_3</title>
<polygon fill="#ffffff" stroke="#000000" points="583,-292 0,-292 0,0 583,0 583,-292"/>
<polygon fill="#92bde4" stroke="transparent" points="8.5,-188 8.5,-288 575.5,-288 575.5,-188 8.5,-188"/>
<polygon fill="none" stroke="#000000" points="8.5,-188 8.5,-288 575.5,-288 575.5,-188 8.5,-188"/>
<text text-anchor="start" x="231.6915" y="-228.5" font-family="Helvetica,Arial,sans-serif" font-size="35.00" fill="#000000"> </text>
<text text-anchor="start" x="241.418" y="-228.5" font-family="Helvetica,Arial,sans-serif" font-weight="bold" font-size="35.00" fill="#000000">Step 3:</text>
<polygon fill="#e3eef8" stroke="transparent" points="8.5,-4 8.5,-188 575.5,-188 575.5,-4 8.5,-4"/>
<polygon fill="none" stroke="#000000" points="8.5,-4 8.5,-188 575.5,-188 575.5,-4 8.5,-4"/>
<text text-anchor="start" x="87.7803" y="-127.5" font-family="Helvetica,Arial,sans-serif" font-size="35.00" fill="#000000">Visualise and extract input</text>
<text text-anchor="start" x="37.2333" y="-85.5" font-family="Helvetica,Arial,sans-serif" font-size="35.00" fill="#000000">variables to see if bias correction</text>
<text text-anchor="start" x="211.2708" y="-43.5" font-family="Helvetica,Arial,sans-serif" font-size="35.00" fill="#000000"> is needed</text>
</g>
<!-- Step_2&#45;&gt;Step_3 -->
<g id="edge2" class="edge">
<title>Step_2&#45;&gt;Step_3</title>
<path fill="none" stroke="#000000" stroke-width="3" d="M291.5,-350.9399C291.5,-334.8845 291.5,-318.4907 291.5,-302.3168"/>
<polygon fill="#000000" stroke="#000000" stroke-width="3" points="295.0001,-302.2797 291.5,-292.2797 288.0001,-302.2798 295.0001,-302.2797"/>
</g>
<!-- Step_4 -->
<g id="node5" class="node">
<title>Step_4</title>
<polygon fill="#ffffff" stroke="#000000" points="1237,-643 662,-643 662,-351 1237,-351 1237,-643"/>
<polygon fill="#92bde4" stroke="transparent" points="670.5,-539 670.5,-639 1229.5,-639 1229.5,-539 670.5,-539"/>
<polygon fill="none" stroke="#000000" points="670.5,-539 670.5,-639 1229.5,-639 1229.5,-539 670.5,-539"/>
<text text-anchor="start" x="889.6915" y="-579.5" font-family="Helvetica,Arial,sans-serif" font-size="35.00" fill="#000000"> </text>
<text text-anchor="start" x="899.418" y="-579.5" font-family="Helvetica,Arial,sans-serif" font-weight="bold" font-size="35.00" fill="#000000">Step 4:</text>
<polygon fill="#e3eef8" stroke="transparent" points="670.5,-355 670.5,-539 1229.5,-539 1229.5,-355 670.5,-355"/>
<polygon fill="none" stroke="#000000" points="670.5,-355 670.5,-539 1229.5,-539 1229.5,-355 670.5,-355"/>
<text text-anchor="start" x="699.1375" y="-478.5" font-family="Helvetica,Arial,sans-serif" font-size="35.00" fill="#000000">Determine if further downscaling</text>
<text text-anchor="start" x="869.2708" y="-436.5" font-family="Helvetica,Arial,sans-serif" font-size="35.00" fill="#000000"> is needed</text>
</g>
<!-- Step_n&#45;&gt;Step_4 -->
<g id="edge4" class="edge">
<title>Step_n&#45;&gt;Step_4</title>
<path fill="none" stroke="#d8582d" stroke-width="6" stroke-dasharray="1,5" d="M1164.1392,-829.2384C1132.3806,-780.0795 1089.0322,-712.9809 1049.6038,-651.9499"/>
<polygon fill="#d8582d" stroke="#d8582d" stroke-width="6" points="1053.9042,-648.9316 1044.0679,-643.381 1045.0846,-654.6295 1053.9042,-648.9316"/>
<text text-anchor="middle" x="1131.4808" y="-685.5" font-family="bold Helvetica,Arial,sans-serif" font-size="45.00" fill="#d8582d">Yes</text>
</g>
<!-- Step_5 -->
<g id="node6" class="node">
<title>Step_5</title>
<g id="a_node6"><a xlink:title="Step 5:">
<polygon fill="#ffffff" stroke="#000000" points="1818.5,-643 1266.5,-643 1266.5,-351 1818.5,-351 1818.5,-643"/>
<polygon fill="#92bde4" stroke="transparent" points="1274.5,-539 1274.5,-639 1810.5,-639 1810.5,-539 1274.5,-539"/>
<polygon fill="none" stroke="#000000" points="1274.5,-539 1274.5,-639 1810.5,-639 1810.5,-539 1274.5,-539"/>
<text text-anchor="start" x="1482.1915" y="-579.5" font-family="Helvetica,Arial,sans-serif" font-size="35.00" fill="#000000"> </text>
<text text-anchor="start" x="1491.918" y="-579.5" font-family="Helvetica,Arial,sans-serif" font-weight="bold" font-size="35.00" fill="#000000">Step 5:</text>
<polygon fill="#e3eef8" stroke="transparent" points="1274.5,-355 1274.5,-539 1810.5,-539 1810.5,-355 1274.5,-355"/>
<polygon fill="none" stroke="#000000" points="1274.5,-355 1274.5,-539 1810.5,-539 1810.5,-355 1274.5,-355"/>
<text text-anchor="start" x="1303.2715" y="-478.5" font-family="Helvetica,Arial,sans-serif" font-size="35.00" fill="#000000">Match and extract fishing effort</text>
<text text-anchor="start" x="1311.0555" y="-436.5" font-family="Helvetica,Arial,sans-serif" font-size="35.00" fill="#000000">groupings to force your model</text>
</a>
</g>
</g>
<!-- Step_n&#45;&gt;Step_5 -->
<g id="edge5" class="edge">
<title>Step_n&#45;&gt;Step_5</title>
<path fill="none" stroke="#194c19" stroke-width="6" stroke-dasharray="1,5" d="M1269.4724,-829.2384C1310.0356,-779.8784 1365.462,-712.4317 1415.7801,-651.2014"/>
<polygon fill="#194c19" stroke="#194c19" stroke-width="6" points="1419.9138,-654.4402 1422.2067,-643.381 1411.8016,-647.7736 1419.9138,-654.4402"/>
<text text-anchor="middle" x="1423.9927" y="-685.5" font-family="bold Helvetica,Arial,sans-serif" font-size="45.00" fill="#194c19">No</text>
</g>
<!-- Step_7 -->
<g id="node8" class="node">
<title>Step_7</title>
<g id="a_node8"><a xlink:title="Step 7:">
<polygon fill="#ffffff" stroke="#000000" points="2443.5,-1047 1909.5,-1047 1909.5,-755 2443.5,-755 2443.5,-1047"/>
<polygon fill="#92bde4" stroke="transparent" points="1917.5,-943 1917.5,-1043 2435.5,-1043 2435.5,-943 1917.5,-943"/>
<polygon fill="none" stroke="#000000" points="1917.5,-943 1917.5,-1043 2435.5,-1043 2435.5,-943 1917.5,-943"/>
<text text-anchor="start" x="2116.1915" y="-983.5" font-family="Helvetica,Arial,sans-serif" font-size="35.00" fill="#000000"> </text>
<text text-anchor="start" x="2125.918" y="-983.5" font-family="Helvetica,Arial,sans-serif" font-weight="bold" font-size="35.00" fill="#000000">Step 7:</text>
<polygon fill="#e3eef8" stroke="transparent" points="1917.5,-759 1917.5,-943 2435.5,-943 2435.5,-759 1917.5,-759"/>
<polygon fill="none" stroke="#000000" points="1917.5,-759 1917.5,-943 2435.5,-943 2435.5,-759 1917.5,-759"/>
<text text-anchor="start" x="1946.039" y="-882.5" font-family="Helvetica,Arial,sans-serif" font-size="35.00" fill="#000000">Set up model with forcings for</text>
<text text-anchor="start" x="2033.5495" y="-840.5" font-family="Helvetica,Arial,sans-serif" font-size="35.00" fill="#000000">each comparative </text>
<text text-anchor="start" x="2046.2038" y="-798.5" font-family="Helvetica,Arial,sans-serif" font-size="35.00" fill="#000000">experimental run</text>
</a>
</g>
</g>
<!-- Step_n&#45;&gt;Step_7 -->
<!-- Step_3&#45;&gt;Step_n -->
<g id="edge3" class="edge">
<title>Step_3&#45;&gt;Step_n</title>
<path fill="none" stroke="#000000" stroke-width="3" d="M537.9507,-292.3275C556.5957,-310.3075 573.5442,-329.8775 587.5,-351 660.5353,-461.5406 565.0313,-539.3067 647.5,-643 739.7942,-759.0476 896.032,-824.9365 1020.537,-861.031"/>
<polygon fill="#000000" stroke="#000000" stroke-width="3" points="1019.6247,-864.4103 1030.2015,-863.7917 1021.5475,-857.6796 1019.6247,-864.4103"/>
</g>
<!-- Step_6 -->
<g id="node7" class="node">
<title>Step_6</title>
<polygon fill="#ffffff" stroke="#000000" points="1458.5,-292 892.5,-292 892.5,0 1458.5,0 1458.5,-292"/>
<polygon fill="#92bde4" stroke="transparent" points="900.5,-188 900.5,-288 1450.5,-288 1450.5,-188 900.5,-188"/>
<polygon fill="none" stroke="#000000" points="900.5,-188 900.5,-288 1450.5,-288 1450.5,-188 900.5,-188"/>
<text text-anchor="start" x="1115.1915" y="-228.5" font-family="Helvetica,Arial,sans-serif" font-size="35.00" fill="#000000"> </text>
<text text-anchor="start" x="1124.918" y="-228.5" font-family="Helvetica,Arial,sans-serif" font-weight="bold" font-size="35.00" fill="#000000">Step 6:</text>
<polygon fill="#e3eef8" stroke="transparent" points="900.5,-4 900.5,-188 1450.5,-188 1450.5,-4 900.5,-4"/>
<polygon fill="none" stroke="#000000" points="900.5,-4 900.5,-188 1450.5,-188 1450.5,-4 900.5,-4"/>
<text text-anchor="start" x="1017.02" y="-127.5" font-family="Helvetica,Arial,sans-serif" font-size="35.00" fill="#000000">Calibrate model with</text>
<text text-anchor="start" x="929.4465" y="-85.5" font-family="Helvetica,Arial,sans-serif" font-size="35.00" fill="#000000"> observational global catch data</text>
<text text-anchor="start" x="1017.965" y="-43.5" font-family="Helvetica,Arial,sans-serif" font-size="35.00" fill="#000000"> for reference period</text>
</g>
<!-- Step_4&#45;&gt;Step_6 -->
<g id="edge6" class="edge">
<title>Step_4&#45;&gt;Step_6</title>
<path fill="none" stroke="#000000" stroke-width="3" d="M1043.5444,-350.9399C1054.1746,-334.4301 1065.0353,-317.5625 1075.7354,-300.9441"/>
<polygon fill="#000000" stroke="#000000" stroke-width="3" points="1078.8433,-302.5824 1081.3142,-292.2797 1072.9577,-298.7929 1078.8433,-302.5824"/>
</g>
<!-- Step_5&#45;&gt;Step_6 -->
<g id="edge7" class="edge">
<title>Step_5&#45;&gt;Step_6</title>
<path fill="none" stroke="#000000" stroke-width="3" d="M1389.7819,-350.9399C1372.0444,-333.9757 1353.9119,-316.6337 1336.073,-299.5725"/>
<polygon fill="#000000" stroke="#000000" stroke-width="3" points="1338.0938,-296.6621 1328.4478,-292.2797 1333.2555,-301.7209 1338.0938,-296.6621"/>
</g>
<!-- Step_6&#45;&gt;Step_7 -->
<g id="edge8" class="edge">
<title>Step_6&#45;&gt;Step_7</title>
<path fill="none" stroke="#000000" stroke-width="3" d="M1458.9415,-204.2905C1612.198,-241.4626 1780.5341,-293.381 1832.5,-351 1921.1738,-449.3201 1826.0319,-527.9183 1891.5,-643 1913.0537,-680.8877 1942.1594,-716.2359 1973.5608,-747.8742"/>
<polygon fill="#000000" stroke="#000000" stroke-width="3" points="1971.1614,-750.4241 1980.7227,-754.9885 1976.0947,-745.4578 1971.1614,-750.4241"/>
</g>
<!-- Step_8 -->
<g id="node9" class="node">
<title>Step_8</title>
<polygon fill="#ffffff" stroke="#000000" points="2446.5,-643 1906.5,-643 1906.5,-351 2446.5,-351 2446.5,-643"/>
<polygon fill="#92bde4" stroke="transparent" points="1914.5,-539 1914.5,-639 2438.5,-639 2438.5,-539 1914.5,-539"/>
<polygon fill="none" stroke="#000000" points="1914.5,-539 1914.5,-639 2438.5,-639 2438.5,-539 1914.5,-539"/>
<text text-anchor="start" x="2116.1915" y="-579.5" font-family="Helvetica,Arial,sans-serif" font-size="35.00" fill="#000000"> </text>
<text text-anchor="start" x="2125.918" y="-579.5" font-family="Helvetica,Arial,sans-serif" font-weight="bold" font-size="35.00" fill="#000000">Step 8:</text>
<polygon fill="#e3eef8" stroke="transparent" points="1914.5,-355 1914.5,-539 2438.5,-539 2438.5,-355 1914.5,-355"/>
<polygon fill="none" stroke="#000000" points="1914.5,-355 1914.5,-539 2438.5,-539 2438.5,-355 1914.5,-355"/>
<text text-anchor="start" x="1956.7088" y="-478.5" font-family="Helvetica,Arial,sans-serif" font-size="35.00" fill="#000000">Output standard variables to</text>
<text text-anchor="start" x="1943.1095" y="-436.5" font-family="Helvetica,Arial,sans-serif" font-size="35.00" fill="#000000">compare with data and across</text>
<text text-anchor="start" x="1991.749" y="-394.5" font-family="Helvetica,Arial,sans-serif" font-size="35.00" fill="#000000">models over time/space</text>
</g>
<!-- Step_7&#45;&gt;Step_8 -->
<g id="edge9" class="edge">
<title>Step_7&#45;&gt;Step_8</title>
<path fill="none" stroke="#000000" stroke-width="3" d="M2176.5,-754.8612C2176.5,-721.8985 2176.5,-686.7819 2176.5,-653.416"/>
<polygon fill="#000000" stroke="#000000" stroke-width="3" points="2180.0001,-653.1215 2176.5,-643.1215 2173.0001,-653.1216 2180.0001,-653.1215"/>
</g>
<!-- Step_9 -->
<g id="node10" class="node">
<title>Step_9</title>
<polygon fill="#ffffff" stroke="#000000" points="2448.5,-292 1904.5,-292 1904.5,0 2448.5,0 2448.5,-292"/>
<polygon fill="#92bde4" stroke="transparent" points="1912.5,-188 1912.5,-288 2440.5,-288 2440.5,-188 1912.5,-188"/>
<polygon fill="none" stroke="#000000" points="1912.5,-188 1912.5,-288 2440.5,-288 2440.5,-188 1912.5,-188"/>
<text text-anchor="start" x="2116.1915" y="-228.5" font-family="Helvetica,Arial,sans-serif" font-size="35.00" fill="#000000"> </text>
<text text-anchor="start" x="2125.918" y="-228.5" font-family="Helvetica,Arial,sans-serif" font-weight="bold" font-size="35.00" fill="#000000">Step 9:</text>
<polygon fill="#e3eef8" stroke="transparent" points="1912.5,-4 1912.5,-188 2440.5,-188 2440.5,-4 1912.5,-4"/>
<polygon fill="none" stroke="#000000" points="1912.5,-4 1912.5,-188 2440.5,-188 2440.5,-4 1912.5,-4"/>
<text text-anchor="start" x="1941.167" y="-127.5" font-family="Helvetica,Arial,sans-serif" font-size="35.00" fill="#000000">Quality control checks and up&#45;</text>
<text text-anchor="start" x="2001.4808" y="-85.5" font-family="Helvetica,Arial,sans-serif" font-size="35.00" fill="#000000">load to FishMIP server</text>
</g>
<!-- Step_8&#45;&gt;Step_9 -->
<g id="edge10" class="edge">
<title>Step_8&#45;&gt;Step_9</title>
<path fill="none" stroke="#000000" stroke-width="3" d="M2176.5,-350.9399C2176.5,-334.8845 2176.5,-318.4907 2176.5,-302.3168"/>
<polygon fill="#000000" stroke="#000000" stroke-width="3" points="2180.0001,-302.2797 2176.5,-292.2797 2173.0001,-302.2798 2180.0001,-302.2797"/>
</g>
</g>
</svg>

