<?xml version="1.0" encoding="UTF-8" standalone="no"?>
<!DOCTYPE svg PUBLIC "-//W3C//DTD SVG 1.1//EN"
 "http://www.w3.org/Graphics/SVG/1.1/DTD/svg11.dtd">
<!-- Generated by graphviz version 2.40.1 (20161225.0304)
 -->
<!-- Title: git_basics Pages: 1 -->
<svg width="1198pt" height="1211pt"
 viewBox="0.00 0.00 1197.50 1211.00" xmlns="http://www.w3.org/2000/svg" xmlns:xlink="http://www.w3.org/1999/xlink">
<g id="graph0" class="graph" transform="scale(1 1) rotate(0) translate(4 1207)">
<title>git_basics</title>
<polygon fill="#ffffff" stroke="transparent" points="-4,4 -4,-1207 1193.5,-1207 1193.5,4 -4,4"/>
<!-- Step_1 -->
<g id="node1" class="node">
<title>Step_1</title>
<polygon fill="#ffffff" stroke="#000000" points="557,-1203 208,-1203 208,-983 557,-983 557,-1203"/>
<polygon fill="#92bde4" stroke="transparent" points="216.5,-1117 216.5,-1199 549.5,-1199 549.5,-1117 216.5,-1117"/>
<polygon fill="none" stroke="#000000" points="216.5,-1117 216.5,-1199 549.5,-1199 549.5,-1117 216.5,-1117"/>
<text text-anchor="start" x="348.538" y="-1153" font-family="Helvetica,Arial,sans-serif" font-size="20.00" fill="#000000"> </text>
<text text-anchor="start" x="354.096" y="-1153" font-family="Helvetica,Arial,sans-serif" font-weight="bold" font-size="20.00" fill="#000000">Step 1:</text>
<polygon fill="#e3eef8" stroke="transparent" points="216.5,-987 216.5,-1117 549.5,-1117 549.5,-987 216.5,-987"/>
<polygon fill="none" stroke="#000000" points="216.5,-987 216.5,-1117 549.5,-1117 549.5,-987 216.5,-987"/>
<text text-anchor="start" x="245.207" y="-1070" font-family="Helvetica,Arial,sans-serif" font-size="20.00" fill="#000000">Identify which climate variables</text>
<text text-anchor="start" x="270.732" y="-1046" font-family="Helvetica,Arial,sans-serif" font-size="20.00" fill="#000000">to use and how these are</text>
<text text-anchor="start" x="325.771" y="-1022" font-family="Helvetica,Arial,sans-serif" font-size="20.00" fill="#000000">implemented</text>
</g>
<!-- Step_2 -->
<g id="node2" class="node">
<title>Step_2</title>
<polygon fill="#ffffff" stroke="#000000" points="559.5,-966 205.5,-966 205.5,-746 559.5,-746 559.5,-966"/>
<polygon fill="#92bde4" stroke="transparent" points="213.5,-880 213.5,-962 551.5,-962 551.5,-880 213.5,-880"/>
<polygon fill="none" stroke="#000000" points="213.5,-880 213.5,-962 551.5,-962 551.5,-880 213.5,-880"/>
<text text-anchor="start" x="348.038" y="-916" font-family="Helvetica,Arial,sans-serif" font-size="20.00" fill="#000000"> </text>
<text text-anchor="start" x="353.596" y="-916" font-family="Helvetica,Arial,sans-serif" font-weight="bold" font-size="20.00" fill="#000000">Step 2:</text>
<polygon fill="#e3eef8" stroke="transparent" points="213.5,-750 213.5,-880 551.5,-880 551.5,-750 213.5,-750"/>
<polygon fill="none" stroke="#000000" points="213.5,-750 213.5,-880 551.5,-880 551.5,-750 213.5,-750"/>
<text text-anchor="start" x="242.468" y="-833" font-family="Helvetica,Arial,sans-serif" font-size="20.00" fill="#000000">Provide shapefile of your model</text>
<text text-anchor="start" x="271.365" y="-809" font-family="Helvetica,Arial,sans-serif" font-size="20.00" fill="#000000">domain and fill out model</text>
<text text-anchor="start" x="344.158" y="-785" font-family="Helvetica,Arial,sans-serif" font-size="20.00" fill="#000000">template</text>
</g>
<!-- Step_1&#45;&gt;Step_2 -->
<g id="edge1" class="edge">
<title>Step_1&#45;&gt;Step_2</title>
<path fill="none" stroke="#000000" stroke-width="2" d="M382.5,-982.8259C382.5,-980.6538 382.5,-978.478 382.5,-976.3014"/>
<polygon fill="#000000" stroke="#000000" stroke-width="2" points="386.0001,-976.1199 382.5,-966.1199 379.0001,-976.12 386.0001,-976.1199"/>
</g>
<!-- Step_6 -->
<g id="node7" class="node">
<title>Step_6</title>
<g id="a_node7"><a xlink:title="Step 6:">
<polygon fill="#ffffff" stroke="#000000" points="962,-1203 601,-1203 601,-983 962,-983 962,-1203"/>
<polygon fill="#92bde4" stroke="transparent" points="609.5,-1117 609.5,-1199 954.5,-1199 954.5,-1117 609.5,-1117"/>
<polygon fill="none" stroke="#000000" points="609.5,-1117 609.5,-1199 954.5,-1199 954.5,-1117 609.5,-1117"/>
<text text-anchor="start" x="747.538" y="-1153" font-family="Helvetica,Arial,sans-serif" font-size="20.00" fill="#000000"> </text>
<text text-anchor="start" x="753.096" y="-1153" font-family="Helvetica,Arial,sans-serif" font-weight="bold" font-size="20.00" fill="#000000">Step 6:</text>
<polygon fill="#e3eef8" stroke="transparent" points="609.5,-987 609.5,-1117 954.5,-1117 954.5,-987 609.5,-987"/>
<polygon fill="none" stroke="#000000" points="609.5,-987 609.5,-1117 954.5,-1117 954.5,-987 609.5,-987"/>
<text text-anchor="start" x="691.44" y="-1070" font-family="Helvetica,Arial,sans-serif" font-size="20.00" fill="#000000">Calibrate model with</text>
<text text-anchor="start" x="638.07" y="-1046" font-family="Helvetica,Arial,sans-serif" font-size="20.00" fill="#000000"> observational data for reference</text>
<text text-anchor="start" x="751.437" y="-1022" font-family="Helvetica,Arial,sans-serif" font-size="20.00" fill="#000000"> period</text>
</a>
</g>
</g>
<!-- Step_1&#45;&gt;Step_6 -->
<!-- Step_n -->
<g id="node3" class="node">
<title>Step_n</title>
<polygon fill="#f6b979" stroke="#000000" points="526.5,-659 238.5,-659 238.5,-579 526.5,-579 526.5,-659"/>
<text text-anchor="middle" x="382.5" y="-613" font-family="Helvetica,Arial,sans-serif" font-size="20.00" fill="#000000">Is model spatial?</text>
</g>
<!-- Step_2&#45;&gt;Step_n -->
<g id="edge2" class="edge">
<title>Step_2&#45;&gt;Step_n</title>
<path fill="none" stroke="#000000" stroke-width="2" stroke-dasharray="1,5" d="M382.5,-745.8259C382.5,-719.1112 382.5,-691.8294 382.5,-669.4474"/>
<polygon fill="#000000" stroke="#000000" stroke-width="2" points="386.0001,-669.2038 382.5,-659.2038 379.0001,-669.2039 386.0001,-669.2038"/>
</g>
<!-- Step_3 -->
<g id="node4" class="node">
<title>Step_3</title>
<polygon fill="#ffffff" stroke="#000000" points="365,-457 0,-457 0,-237 365,-237 365,-457"/>
<polygon fill="#92bde4" stroke="transparent" points="8.5,-371 8.5,-453 357.5,-453 357.5,-371 8.5,-371"/>
<polygon fill="none" stroke="#000000" points="8.5,-371 8.5,-453 357.5,-453 357.5,-371 8.5,-371"/>
<text text-anchor="start" x="148.538" y="-407" font-family="Helvetica,Arial,sans-serif" font-size="20.00" fill="#000000"> </text>
<text text-anchor="start" x="154.096" y="-407" font-family="Helvetica,Arial,sans-serif" font-weight="bold" font-size="20.00" fill="#000000">Step 3:</text>
<polygon fill="#e3eef8" stroke="transparent" points="8.5,-241 8.5,-371 357.5,-371 357.5,-241 8.5,-241"/>
<polygon fill="none" stroke="#000000" points="8.5,-241 8.5,-371 357.5,-371 357.5,-241 8.5,-241"/>
<text text-anchor="start" x="66.303" y="-324" font-family="Helvetica,Arial,sans-serif" font-size="20.00" fill="#000000">Visualise and extract input</text>
<text text-anchor="start" x="37.419" y="-300" font-family="Helvetica,Arial,sans-serif" font-size="20.00" fill="#000000">variables to see if bias correction</text>
<text text-anchor="start" x="136.869" y="-276" font-family="Helvetica,Arial,sans-serif" font-size="20.00" fill="#000000"> is needed</text>
</g>
<!-- Step_n&#45;&gt;Step_3 -->
<g id="edge3" class="edge">
<title>Step_n&#45;&gt;Step_3</title>
<path fill="none" stroke="#329932" stroke-width="2" stroke-dasharray="1,5" d="M352.9893,-578.8655C330.884,-548.8023 299.4288,-506.0231 269.5437,-465.3794"/>
<polygon fill="#329932" stroke="#329932" stroke-width="2" points="272.3346,-463.2667 263.5909,-457.2836 266.695,-467.4135 272.3346,-463.2667"/>
<text text-anchor="middle" x="312.8285" y="-474" font-family="bold Helvetica,Arial,sans-serif" font-size="30.00" fill="#329932">No</text>
</g>
<!-- Step_4 -->
<g id="node5" class="node">
<title>Step_4</title>
<polygon fill="#ffffff" stroke="#000000" points="747.5,-457 387.5,-457 387.5,-237 747.5,-237 747.5,-457"/>
<polygon fill="#92bde4" stroke="transparent" points="395.5,-371 395.5,-453 739.5,-453 739.5,-371 395.5,-371"/>
<polygon fill="none" stroke="#000000" points="395.5,-371 395.5,-453 739.5,-453 739.5,-371 395.5,-371"/>
<text text-anchor="start" x="533.038" y="-407" font-family="Helvetica,Arial,sans-serif" font-size="20.00" fill="#000000"> </text>
<text text-anchor="start" x="538.596" y="-407" font-family="Helvetica,Arial,sans-serif" font-weight="bold" font-size="20.00" fill="#000000">Step 4:</text>
<polygon fill="#e3eef8" stroke="transparent" points="395.5,-241 395.5,-371 739.5,-371 739.5,-241 395.5,-241"/>
<polygon fill="none" stroke="#000000" points="395.5,-241 395.5,-371 739.5,-371 739.5,-241 395.5,-241"/>
<text text-anchor="start" x="424.15" y="-324" font-family="Helvetica,Arial,sans-serif" font-size="20.00" fill="#000000">Determine if further downscaling</text>
<text text-anchor="start" x="521.369" y="-300" font-family="Helvetica,Arial,sans-serif" font-size="20.00" fill="#000000"> is needed</text>
</g>
<!-- Step_n&#45;&gt;Step_4 -->
<g id="edge4" class="edge">
<title>Step_n&#45;&gt;Step_4</title>
<path fill="none" stroke="#d8ae2d" stroke-width="2" stroke-dasharray="1,5" d="M409.7974,-578.8655C430.2022,-548.8649 459.2197,-506.2013 486.8118,-465.6335"/>
<polygon fill="#d8ae2d" stroke="#d8ae2d" stroke-width="2" points="489.761,-467.5207 492.4909,-457.2836 483.9729,-463.5839 489.761,-467.5207"/>
<text text-anchor="middle" x="509.8205" y="-474" font-family="bold Helvetica,Arial,sans-serif" font-size="30.00" fill="#d8ae2d">Yes</text>
</g>
<!-- Step_5 -->
<g id="node6" class="node">
<title>Step_5</title>
<g id="a_node6"><a xlink:title="Step 5:">
<polygon fill="#ffffff" stroke="#000000" points="955,-220 608,-220 608,0 955,0 955,-220"/>
<polygon fill="#92bde4" stroke="transparent" points="616.5,-134 616.5,-216 947.5,-216 947.5,-134 616.5,-134"/>
<polygon fill="none" stroke="#000000" points="616.5,-134 616.5,-216 947.5,-216 947.5,-134 616.5,-134"/>
<text text-anchor="start" x="747.538" y="-170" font-family="Helvetica,Arial,sans-serif" font-size="20.00" fill="#000000"> </text>
<text text-anchor="start" x="753.096" y="-170" font-family="Helvetica,Arial,sans-serif" font-weight="bold" font-size="20.00" fill="#000000">Step 5:</text>
<polygon fill="#e3eef8" stroke="transparent" points="616.5,-4 616.5,-134 947.5,-134 947.5,-4 616.5,-4"/>
<polygon fill="none" stroke="#000000" points="616.5,-4 616.5,-134 947.5,-134 947.5,-4 616.5,-4"/>
<text text-anchor="start" x="645.298" y="-87" font-family="Helvetica,Arial,sans-serif" font-size="20.00" fill="#000000">Match and extract fishing effort</text>
<text text-anchor="start" x="649.746" y="-63" font-family="Helvetica,Arial,sans-serif" font-size="20.00" fill="#000000">groupings to force your model</text>
</a>
</g>
</g>
<!-- Step_3&#45;&gt;Step_5 -->
<g id="edge5" class="edge">
<title>Step_3&#45;&gt;Step_5</title>
<path fill="none" stroke="#000000" stroke-width="2" d="M365.2312,-243.3895C372.3372,-239.3603 376.5,-237 376.5,-237 376.5,-237 491.0391,-201.0828 598.2932,-167.45"/>
<polygon fill="#000000" stroke="#000000" stroke-width="2" points="599.4865,-170.744 607.9811,-164.4121 597.3919,-164.0647 599.4865,-170.744"/>
</g>
<!-- Step_4&#45;&gt;Step_5 -->
<g id="edge6" class="edge">
<title>Step_4&#45;&gt;Step_5</title>
<path fill="none" stroke="#000000" stroke-width="2" d="M666.9821,-236.8259C669.7279,-233.785 672.4803,-230.7368 675.2321,-227.6892"/>
<polygon fill="#000000" stroke="#000000" stroke-width="2" points="677.9627,-229.8876 682.0668,-220.1199 672.7673,-225.1964 677.9627,-229.8876"/>
</g>
<!-- Step_5&#45;&gt;Step_6 -->
<g id="edge7" class="edge">
<title>Step_5&#45;&gt;Step_6</title>
<path fill="none" stroke="#000000" stroke-width="2" d="M781.5,-220.1741C781.5,-282.0651 781.5,-347 781.5,-347 781.5,-856 781.5,-856 781.5,-856 781.5,-856 781.5,-914.0268 781.5,-972.6557"/>
<polygon fill="#000000" stroke="#000000" stroke-width="2" points="778.0001,-972.8259 781.5,-982.8259 785.0001,-972.826 778.0001,-972.8259"/>
</g>
<!-- Step_7 -->
<g id="node8" class="node">
<title>Step_7</title>
<polygon fill="#ffffff" stroke="#000000" points="1169,-966 818,-966 818,-746 1169,-746 1169,-966"/>
<polygon fill="#92bde4" stroke="transparent" points="826.5,-880 826.5,-962 1161.5,-962 1161.5,-880 826.5,-880"/>
<polygon fill="none" stroke="#000000" points="826.5,-880 826.5,-962 1161.5,-962 1161.5,-880 826.5,-880"/>
<text text-anchor="start" x="959.538" y="-916" font-family="Helvetica,Arial,sans-serif" font-size="20.00" fill="#000000"> </text>
<text text-anchor="start" x="965.096" y="-916" font-family="Helvetica,Arial,sans-serif" font-weight="bold" font-size="20.00" fill="#000000">Step 7:</text>
<polygon fill="#e3eef8" stroke="transparent" points="826.5,-750 826.5,-880 1161.5,-880 1161.5,-750 826.5,-750"/>
<polygon fill="none" stroke="#000000" points="826.5,-750 826.5,-880 1161.5,-880 1161.5,-750 826.5,-750"/>
<text text-anchor="start" x="862.308" y="-833" font-family="Helvetica,Arial,sans-serif" font-size="20.00" fill="#000000">Set up model with forcings for</text>
<text text-anchor="start" x="855.085" y="-809" font-family="Helvetica,Arial,sans-serif" font-size="20.00" fill="#000000">each comparative experimental</text>
<text text-anchor="start" x="979.553" y="-785" font-family="Helvetica,Arial,sans-serif" font-size="20.00" fill="#000000">run</text>
</g>
<!-- Step_6&#45;&gt;Step_7 -->
<g id="edge8" class="edge">
<title>Step_6&#45;&gt;Step_7</title>
<path fill="none" stroke="#000000" stroke-width="2" d="M880.0523,-982.8259C882.7725,-979.785 885.4992,-976.7368 888.2253,-973.6892"/>
<polygon fill="#000000" stroke="#000000" stroke-width="2" points="890.9377,-975.9067 894.9961,-966.1199 885.7204,-971.2397 890.9377,-975.9067"/>
</g>
<!-- Step_8 -->
<g id="node9" class="node">
<title>Step_8</title>
<polygon fill="#ffffff" stroke="#000000" points="1171.5,-729 831.5,-729 831.5,-509 1171.5,-509 1171.5,-729"/>
<polygon fill="#92bde4" stroke="transparent" points="839.5,-643 839.5,-725 1163.5,-725 1163.5,-643 839.5,-643"/>
<polygon fill="none" stroke="#000000" points="839.5,-643 839.5,-725 1163.5,-725 1163.5,-643 839.5,-643"/>
<text text-anchor="start" x="967.038" y="-679" font-family="Helvetica,Arial,sans-serif" font-size="20.00" fill="#000000"> </text>
<text text-anchor="start" x="972.596" y="-679" font-family="Helvetica,Arial,sans-serif" font-weight="bold" font-size="20.00" fill="#000000">Step 8:</text>
<polygon fill="#e3eef8" stroke="transparent" points="839.5,-513 839.5,-643 1163.5,-643 1163.5,-513 839.5,-513"/>
<polygon fill="none" stroke="#000000" points="839.5,-513 839.5,-643 1163.5,-643 1163.5,-513 839.5,-513"/>
<text text-anchor="start" x="875.905" y="-596" font-family="Helvetica,Arial,sans-serif" font-size="20.00" fill="#000000">Output standard variables to</text>
<text text-anchor="start" x="868.134" y="-572" font-family="Helvetica,Arial,sans-serif" font-size="20.00" fill="#000000">compare with data and across</text>
<text text-anchor="start" x="895.928" y="-548" font-family="Helvetica,Arial,sans-serif" font-size="20.00" fill="#000000">models over time/space</text>
</g>
<!-- Step_7&#45;&gt;Step_8 -->
<g id="edge9" class="edge">
<title>Step_7&#45;&gt;Step_8</title>
<path fill="none" stroke="#000000" stroke-width="2" d="M997.219,-745.8259C997.2923,-743.6538 997.3657,-741.478 997.4392,-739.3014"/>
<polygon fill="#000000" stroke="#000000" stroke-width="2" points="1000.9434,-739.2324 997.7829,-729.1199 993.9474,-738.9961 1000.9434,-739.2324"/>
</g>
<!-- Step_9 -->
<g id="node10" class="node">
<title>Step_9</title>
<polygon fill="#ffffff" stroke="#000000" points="1189.5,-457 815.5,-457 815.5,-237 1189.5,-237 1189.5,-457"/>
<polygon fill="#92bde4" stroke="transparent" points="823.5,-371 823.5,-453 1181.5,-453 1181.5,-371 823.5,-371"/>
<polygon fill="none" stroke="#000000" points="823.5,-371 823.5,-453 1181.5,-453 1181.5,-371 823.5,-371"/>
<text text-anchor="start" x="968.038" y="-407" font-family="Helvetica,Arial,sans-serif" font-size="20.00" fill="#000000"> </text>
<text text-anchor="start" x="973.596" y="-407" font-family="Helvetica,Arial,sans-serif" font-weight="bold" font-size="20.00" fill="#000000">Step 9:</text>
<polygon fill="#e3eef8" stroke="transparent" points="823.5,-241 823.5,-371 1181.5,-371 1181.5,-241 823.5,-241"/>
<polygon fill="none" stroke="#000000" points="823.5,-241 823.5,-371 1181.5,-371 1181.5,-241 823.5,-241"/>
<text text-anchor="start" x="852.457" y="-324" font-family="Helvetica,Arial,sans-serif" font-size="20.00" fill="#000000">Quality control checks and upload</text>
<text text-anchor="start" x="924.164" y="-300" font-family="Helvetica,Arial,sans-serif" font-size="20.00" fill="#000000">to FishMIP server</text>
</g>
<!-- Step_8&#45;&gt;Step_9 -->
<g id="edge10" class="edge">
<title>Step_8&#45;&gt;Step_9</title>
<path fill="none" stroke="#000000" stroke-width="2" d="M1001.9053,-508.7593C1001.9549,-495.2642 1002.0058,-481.4179 1002.056,-467.7783"/>
<polygon fill="#000000" stroke="#000000" stroke-width="2" points="1005.5572,-467.4105 1002.0941,-457.3977 998.5573,-467.3847 1005.5572,-467.4105"/>
</g>
</g>
</svg>

