<?xml version="1.0" encoding="UTF-8" standalone="no"?>
<!DOCTYPE svg PUBLIC "-//W3C//DTD SVG 1.1//EN"
 "http://www.w3.org/Graphics/SVG/1.1/DTD/svg11.dtd">
<!-- Generated by graphviz version 2.40.1 (20161225.0304)
 -->
<!-- Title: git_basics Pages: 1 -->
<svg width="1636pt" height="1451pt"
 viewBox="0.00 0.00 1636.00 1451.00" xmlns="http://www.w3.org/2000/svg" xmlns:xlink="http://www.w3.org/1999/xlink">
<g id="graph0" class="graph" transform="scale(1 1) rotate(0) translate(4 1447)">
<title>git_basics</title>
<polygon fill="#ffffff" stroke="transparent" points="-4,4 -4,-1447 1632,-1447 1632,4 -4,4"/>
<!-- Step_1 -->
<g id="node1" class="node">
<title>Step_1</title>
<polygon fill="#ffffff" stroke="#000000" points="773.5,-1443 286.5,-1443 286.5,-1175 773.5,-1175 773.5,-1443"/>
<polygon fill="#92bde4" stroke="transparent" points="295,-1345 295,-1439 766,-1439 766,-1345 295,-1345"/>
<polygon fill="none" stroke="#000000" points="295,-1345 295,-1439 766,-1439 766,-1345 295,-1345"/>
<text text-anchor="start" x="478.807" y="-1384" font-family="Helvetica,Arial,sans-serif" font-size="30.00" fill="#000000"> </text>
<text text-anchor="start" x="487.144" y="-1384" font-family="Helvetica,Arial,sans-serif" font-weight="bold" font-size="30.00" fill="#000000">Step 1:</text>
<polygon fill="#e3eef8" stroke="transparent" points="295,-1179 295,-1345 766,-1345 766,-1179 295,-1179"/>
<polygon fill="none" stroke="#000000" points="295,-1179 295,-1345 766,-1345 766,-1179 295,-1179"/>
<text text-anchor="start" x="323.8105" y="-1289" font-family="Helvetica,Arial,sans-serif" font-size="30.00" fill="#000000">Identify which climate variables</text>
<text text-anchor="start" x="362.098" y="-1253" font-family="Helvetica,Arial,sans-serif" font-size="30.00" fill="#000000">to use and how these are</text>
<text text-anchor="start" x="444.6565" y="-1217" font-family="Helvetica,Arial,sans-serif" font-size="30.00" fill="#000000">implemented</text>
</g>
<!-- Step_2 -->
<g id="node2" class="node">
<title>Step_2</title>
<polygon fill="#ffffff" stroke="#000000" points="777,-1158 283,-1158 283,-890 777,-890 777,-1158"/>
<polygon fill="#92bde4" stroke="transparent" points="291,-1060 291,-1154 769,-1154 769,-1060 291,-1060"/>
<polygon fill="none" stroke="#000000" points="291,-1060 291,-1154 769,-1154 769,-1060 291,-1060"/>
<text text-anchor="start" x="478.307" y="-1099" font-family="Helvetica,Arial,sans-serif" font-size="30.00" fill="#000000"> </text>
<text text-anchor="start" x="486.644" y="-1099" font-family="Helvetica,Arial,sans-serif" font-weight="bold" font-size="30.00" fill="#000000">Step 2:</text>
<polygon fill="#e3eef8" stroke="transparent" points="291,-894 291,-1060 769,-1060 769,-894 291,-894"/>
<polygon fill="none" stroke="#000000" points="291,-894 291,-1060 769,-1060 769,-894 291,-894"/>
<text text-anchor="start" x="319.952" y="-1004" font-family="Helvetica,Arial,sans-serif" font-size="30.00" fill="#000000">Provide shapefile of your model</text>
<text text-anchor="start" x="363.2975" y="-968" font-family="Helvetica,Arial,sans-serif" font-size="30.00" fill="#000000">domain and fill out model</text>
<text text-anchor="start" x="472.487" y="-932" font-family="Helvetica,Arial,sans-serif" font-size="30.00" fill="#000000">template</text>
</g>
<!-- Step_1&#45;&gt;Step_2 -->
<g id="edge1" class="edge">
<title>Step_1&#45;&gt;Step_2</title>
<path fill="none" stroke="#000000" stroke-width="2" d="M530,-1174.8454C530,-1172.7023 530,-1170.5567 530,-1168.4105"/>
<polygon fill="#000000" stroke="#000000" stroke-width="2" points="533.5001,-1168.3695 530,-1158.3696 526.5001,-1168.3696 533.5001,-1168.3695"/>
</g>
<!-- Step_6 -->
<g id="node7" class="node">
<title>Step_6</title>
<g id="a_node7"><a xlink:title="Step 6:">
<polygon fill="#ffffff" stroke="#000000" points="1322.5,-1443 817.5,-1443 817.5,-1175 1322.5,-1175 1322.5,-1443"/>
<polygon fill="#92bde4" stroke="transparent" points="826,-1345 826,-1439 1315,-1439 1315,-1345 826,-1345"/>
<polygon fill="none" stroke="#000000" points="826,-1345 826,-1439 1315,-1439 1315,-1345 826,-1345"/>
<text text-anchor="start" x="1018.807" y="-1384" font-family="Helvetica,Arial,sans-serif" font-size="30.00" fill="#000000"> </text>
<text text-anchor="start" x="1027.144" y="-1384" font-family="Helvetica,Arial,sans-serif" font-weight="bold" font-size="30.00" fill="#000000">Step 6:</text>
<polygon fill="#e3eef8" stroke="transparent" points="826,-1179 826,-1345 1315,-1345 1315,-1179 826,-1179"/>
<polygon fill="none" stroke="#000000" points="826,-1179 826,-1345 1315,-1345 1315,-1179 826,-1179"/>
<text text-anchor="start" x="934.66" y="-1289" font-family="Helvetica,Arial,sans-serif" font-size="30.00" fill="#000000">Calibrate model with</text>
<text text-anchor="start" x="854.605" y="-1253" font-family="Helvetica,Arial,sans-serif" font-size="30.00" fill="#000000"> observational data for reference</text>
<text text-anchor="start" x="1024.6555" y="-1217" font-family="Helvetica,Arial,sans-serif" font-size="30.00" fill="#000000"> period</text>
</a>
</g>
</g>
<!-- Step_1&#45;&gt;Step_6 -->
<!-- Step_n -->
<g id="node3" class="node">
<title>Step_n</title>
<polygon fill="#f6b979" stroke="#000000" points="674,-797 386,-797 386,-681 674,-681 674,-797"/>
<text text-anchor="middle" x="530" y="-730" font-family="Helvetica,Arial,sans-serif" font-size="30.00" fill="#000000">Is model spatial?</text>
</g>
<!-- Step_2&#45;&gt;Step_n -->
<g id="edge2" class="edge">
<title>Step_2&#45;&gt;Step_n</title>
<path fill="none" stroke="#000000" stroke-width="5" stroke-dasharray="1,5" d="M530,-889.8454C530,-861.1677 530,-832.0377 530,-807.1226"/>
<polygon fill="#000000" stroke="#000000" stroke-width="5" points="534.3751,-807.0766 530,-797.0766 525.6251,-807.0767 534.3751,-807.0766"/>
</g>
<!-- Step_3 -->
<g id="node4" class="node">
<title>Step_3</title>
<polygon fill="#ffffff" stroke="#000000" points="510,-553 0,-553 0,-285 510,-285 510,-553"/>
<polygon fill="#92bde4" stroke="transparent" points="8,-455 8,-549 502,-549 502,-455 8,-455"/>
<polygon fill="none" stroke="#000000" points="8,-455 8,-549 502,-549 502,-455 8,-455"/>
<text text-anchor="start" x="203.307" y="-494" font-family="Helvetica,Arial,sans-serif" font-size="30.00" fill="#000000"> </text>
<text text-anchor="start" x="211.644" y="-494" font-family="Helvetica,Arial,sans-serif" font-weight="bold" font-size="30.00" fill="#000000">Step 3:</text>
<polygon fill="#e3eef8" stroke="transparent" points="8,-289 8,-455 502,-455 502,-289 8,-289"/>
<polygon fill="none" stroke="#000000" points="8,-289 8,-455 502,-455 502,-289 8,-289"/>
<text text-anchor="start" x="79.9545" y="-399" font-family="Helvetica,Arial,sans-serif" font-size="30.00" fill="#000000">Visualise and extract input</text>
<text text-anchor="start" x="36.6285" y="-363" font-family="Helvetica,Arial,sans-serif" font-size="30.00" fill="#000000">variables to see if bias correction</text>
<text text-anchor="start" x="185.8035" y="-327" font-family="Helvetica,Arial,sans-serif" font-size="30.00" fill="#000000"> is needed</text>
</g>
<!-- Step_n&#45;&gt;Step_3 -->
<g id="edge3" class="edge">
<title>Step_n&#45;&gt;Step_3</title>
<path fill="none" stroke="#194c19" stroke-width="5" stroke-dasharray="1,5" d="M479.8805,-680.6792C450.9436,-647.0071 413.1906,-603.0764 376.9052,-560.8534"/>
<polygon fill="#194c19" stroke="#194c19" stroke-width="5" points="380.2233,-558.0018 370.3875,-553.2691 373.5871,-563.7048 380.2233,-558.0018"/>
<text text-anchor="middle" x="419.3285" y="-570" font-family="bold Helvetica,Arial,sans-serif" font-size="30.00" fill="#194c19">No</text>
</g>
<!-- Step_4 -->
<g id="node5" class="node">
<title>Step_4</title>
<polygon fill="#ffffff" stroke="#000000" points="1036,-553 532,-553 532,-285 1036,-285 1036,-553"/>
<polygon fill="#92bde4" stroke="transparent" points="540,-455 540,-549 1028,-549 1028,-455 540,-455"/>
<polygon fill="none" stroke="#000000" points="540,-455 540,-549 1028,-549 1028,-455 540,-455"/>
<text text-anchor="start" x="732.307" y="-494" font-family="Helvetica,Arial,sans-serif" font-size="30.00" fill="#000000"> </text>
<text text-anchor="start" x="740.644" y="-494" font-family="Helvetica,Arial,sans-serif" font-weight="bold" font-size="30.00" fill="#000000">Step 4:</text>
<polygon fill="#e3eef8" stroke="transparent" points="540,-289 540,-455 1028,-455 1028,-289 540,-289"/>
<polygon fill="none" stroke="#000000" points="540,-289 540,-455 1028,-455 1028,-289 540,-289"/>
<text text-anchor="start" x="568.975" y="-399" font-family="Helvetica,Arial,sans-serif" font-size="30.00" fill="#000000">Determine if further downscaling</text>
<text text-anchor="start" x="714.8035" y="-363" font-family="Helvetica,Arial,sans-serif" font-size="30.00" fill="#000000"> is needed</text>
</g>
<!-- Step_n&#45;&gt;Step_4 -->
<g id="edge4" class="edge">
<title>Step_n&#45;&gt;Step_4</title>
<path fill="none" stroke="#d8582d" stroke-width="5" stroke-dasharray="1,5" d="M576.2922,-680.6792C602.964,-647.0768 637.745,-603.2582 671.1957,-561.1157"/>
<polygon fill="#d8582d" stroke="#d8582d" stroke-width="5" points="674.6336,-563.8216 677.4239,-553.2691 667.7801,-558.3816 674.6336,-563.8216"/>
<text text-anchor="middle" x="688.3205" y="-570" font-family="bold Helvetica,Arial,sans-serif" font-size="30.00" fill="#d8582d">Yes</text>
</g>
<!-- Step_5 -->
<g id="node6" class="node">
<title>Step_5</title>
<g id="a_node6"><a xlink:title="Step 5:">
<polygon fill="#ffffff" stroke="#000000" points="1312,-268 828,-268 828,0 1312,0 1312,-268"/>
<polygon fill="#92bde4" stroke="transparent" points="836,-170 836,-264 1304,-264 1304,-170 836,-170"/>
<polygon fill="none" stroke="#000000" points="836,-170 836,-264 1304,-264 1304,-170 836,-170"/>
<text text-anchor="start" x="1018.307" y="-209" font-family="Helvetica,Arial,sans-serif" font-size="30.00" fill="#000000"> </text>
<text text-anchor="start" x="1026.644" y="-209" font-family="Helvetica,Arial,sans-serif" font-weight="bold" font-size="30.00" fill="#000000">Step 5:</text>
<polygon fill="#e3eef8" stroke="transparent" points="836,-4 836,-170 1304,-170 1304,-4 836,-4"/>
<polygon fill="none" stroke="#000000" points="836,-4 836,-170 1304,-170 1304,-4 836,-4"/>
<text text-anchor="start" x="864.947" y="-114" font-family="Helvetica,Arial,sans-serif" font-size="30.00" fill="#000000">Match and extract fishing effort</text>
<text text-anchor="start" x="871.619" y="-78" font-family="Helvetica,Arial,sans-serif" font-size="30.00" fill="#000000">groupings to force your model</text>
</a>
</g>
</g>
<!-- Step_3&#45;&gt;Step_5 -->
<g id="edge5" class="edge">
<title>Step_3&#45;&gt;Step_5</title>
<path fill="none" stroke="#000000" stroke-width="2" d="M510.243,-290.4189C517.0995,-286.9649 521,-285 521,-285 521,-285 673.447,-243.0701 817.6757,-203.4007"/>
<polygon fill="#000000" stroke="#000000" stroke-width="2" points="818.8888,-206.6971 827.6025,-200.6703 817.0324,-199.9477 818.8888,-206.6971"/>
</g>
<!-- Step_4&#45;&gt;Step_5 -->
<g id="edge6" class="edge">
<title>Step_4&#45;&gt;Step_5</title>
<path fill="none" stroke="#000000" stroke-width="2" d="M918.6254,-284.8454C921.7222,-281.7593 924.8243,-278.6681 927.9258,-275.5774"/>
<polygon fill="#000000" stroke="#000000" stroke-width="2" points="930.546,-277.9075 935.1589,-268.3696 925.6049,-272.9491 930.546,-277.9075"/>
</g>
<!-- Step_5&#45;&gt;Step_6 -->
<g id="edge7" class="edge">
<title>Step_5&#45;&gt;Step_6</title>
<path fill="none" stroke="#000000" stroke-width="2" d="M1070,-268.1546C1070,-342.0749 1070,-419 1070,-419 1070,-1024 1070,-1024 1070,-1024 1070,-1024 1070,-1093.8824 1070,-1164.4388"/>
<polygon fill="#000000" stroke="#000000" stroke-width="2" points="1066.5001,-1164.8453 1070,-1174.8454 1073.5001,-1164.8454 1066.5001,-1164.8453"/>
</g>
<!-- Step_7 -->
<g id="node8" class="node">
<title>Step_7</title>
<polygon fill="#ffffff" stroke="#000000" points="1597,-1158 1107,-1158 1107,-890 1597,-890 1597,-1158"/>
<polygon fill="#92bde4" stroke="transparent" points="1115,-1060 1115,-1154 1589,-1154 1589,-1060 1115,-1060"/>
<polygon fill="none" stroke="#000000" points="1115,-1060 1115,-1154 1589,-1154 1589,-1060 1115,-1060"/>
<text text-anchor="start" x="1300.307" y="-1099" font-family="Helvetica,Arial,sans-serif" font-size="30.00" fill="#000000"> </text>
<text text-anchor="start" x="1308.644" y="-1099" font-family="Helvetica,Arial,sans-serif" font-weight="bold" font-size="30.00" fill="#000000">Step 7:</text>
<polygon fill="#e3eef8" stroke="transparent" points="1115,-894 1115,-1060 1589,-1060 1589,-894 1115,-894"/>
<polygon fill="none" stroke="#000000" points="1115,-894 1115,-1060 1589,-1060 1589,-894 1115,-894"/>
<text text-anchor="start" x="1154.462" y="-1004" font-family="Helvetica,Arial,sans-serif" font-size="30.00" fill="#000000">Set up model with forcings for</text>
<text text-anchor="start" x="1143.6275" y="-968" font-family="Helvetica,Arial,sans-serif" font-size="30.00" fill="#000000">each comparative experimental</text>
<text text-anchor="start" x="1330.3295" y="-932" font-family="Helvetica,Arial,sans-serif" font-size="30.00" fill="#000000">run</text>
</g>
<!-- Step_6&#45;&gt;Step_7 -->
<g id="edge8" class="edge">
<title>Step_6&#45;&gt;Step_7</title>
<path fill="none" stroke="#000000" stroke-width="2" d="M1202.7425,-1174.8454C1205.796,-1171.7593 1208.8547,-1168.6681 1211.9129,-1165.5774"/>
<polygon fill="#000000" stroke="#000000" stroke-width="2" points="1214.4992,-1167.9397 1219.0448,-1158.3696 1209.5233,-1163.0162 1214.4992,-1167.9397"/>
</g>
<!-- Step_8 -->
<g id="node9" class="node">
<title>Step_8</title>
<polygon fill="#ffffff" stroke="#000000" points="1601,-873 1127,-873 1127,-605 1601,-605 1601,-873"/>
<polygon fill="#92bde4" stroke="transparent" points="1135,-775 1135,-869 1593,-869 1593,-775 1135,-775"/>
<polygon fill="none" stroke="#000000" points="1135,-775 1135,-869 1593,-869 1593,-775 1135,-775"/>
<text text-anchor="start" x="1312.307" y="-814" font-family="Helvetica,Arial,sans-serif" font-size="30.00" fill="#000000"> </text>
<text text-anchor="start" x="1320.644" y="-814" font-family="Helvetica,Arial,sans-serif" font-weight="bold" font-size="30.00" fill="#000000">Step 8:</text>
<polygon fill="#e3eef8" stroke="transparent" points="1135,-609 1135,-775 1593,-775 1593,-609 1135,-609"/>
<polygon fill="none" stroke="#000000" points="1135,-609 1135,-775 1593,-775 1593,-609 1135,-609"/>
<text text-anchor="start" x="1175.6075" y="-719" font-family="Helvetica,Arial,sans-serif" font-size="30.00" fill="#000000">Output standard variables to</text>
<text text-anchor="start" x="1163.951" y="-683" font-family="Helvetica,Arial,sans-serif" font-size="30.00" fill="#000000">compare with data and across</text>
<text text-anchor="start" x="1205.642" y="-647" font-family="Helvetica,Arial,sans-serif" font-size="30.00" fill="#000000">models over time/space</text>
</g>
<!-- Step_7&#45;&gt;Step_8 -->
<g id="edge9" class="edge">
<title>Step_7&#45;&gt;Step_8</title>
<path fill="none" stroke="#000000" stroke-width="2" d="M1357.6486,-889.8454C1357.7389,-887.7023 1357.8292,-885.5567 1357.9196,-883.4105"/>
<polygon fill="#000000" stroke="#000000" stroke-width="2" points="1361.4185,-883.508 1358.3423,-873.3696 1354.4247,-883.2135 1361.4185,-883.508"/>
</g>
<!-- Step_9 -->
<g id="node10" class="node">
<title>Step_9</title>
<polygon fill="#ffffff" stroke="#000000" points="1628,-553 1104,-553 1104,-285 1628,-285 1628,-553"/>
<polygon fill="#92bde4" stroke="transparent" points="1112,-455 1112,-549 1620,-549 1620,-455 1112,-455"/>
<polygon fill="none" stroke="#000000" points="1112,-455 1112,-549 1620,-549 1620,-455 1112,-455"/>
<text text-anchor="start" x="1314.307" y="-494" font-family="Helvetica,Arial,sans-serif" font-size="30.00" fill="#000000"> </text>
<text text-anchor="start" x="1322.644" y="-494" font-family="Helvetica,Arial,sans-serif" font-weight="bold" font-size="30.00" fill="#000000">Step 9:</text>
<polygon fill="#e3eef8" stroke="transparent" points="1112,-289 1112,-455 1620,-455 1620,-289 1112,-289"/>
<polygon fill="none" stroke="#000000" points="1112,-289 1112,-455 1620,-455 1620,-289 1112,-289"/>
<text text-anchor="start" x="1140.9355" y="-399" font-family="Helvetica,Arial,sans-serif" font-size="30.00" fill="#000000">Quality control checks and upload</text>
<text text-anchor="start" x="1248.496" y="-363" font-family="Helvetica,Arial,sans-serif" font-size="30.00" fill="#000000">to FishMIP server</text>
</g>
<!-- Step_8&#45;&gt;Step_9 -->
<g id="edge10" class="edge">
<title>Step_8&#45;&gt;Step_9</title>
<path fill="none" stroke="#000000" stroke-width="2" d="M1364.8395,-604.6821C1364.9251,-590.9877 1365.0123,-577.0356 1365.0985,-563.2412"/>
<polygon fill="#000000" stroke="#000000" stroke-width="2" points="1368.5984,-563.2523 1365.1611,-553.2306 1361.5985,-563.2085 1368.5984,-563.2523"/>
</g>
</g>
</svg>

