<?xml version="1.0" encoding="UTF-8" standalone="no"?>
<!DOCTYPE svg PUBLIC "-//W3C//DTD SVG 1.1//EN"
 "http://www.w3.org/Graphics/SVG/1.1/DTD/svg11.dtd">
<!-- Generated by graphviz version 2.40.1 (20161225.0304)
 -->
<!-- Title: git_basics Pages: 1 -->
<svg width="1990pt" height="1406pt"
 viewBox="0.00 0.00 1989.50 1406.00" xmlns="http://www.w3.org/2000/svg" xmlns:xlink="http://www.w3.org/1999/xlink">
<g id="graph0" class="graph" transform="scale(1 1) rotate(0) translate(4 1402)">
<title>git_basics</title>
<polygon fill="#ffffff" stroke="transparent" points="-4,4 -4,-1402 1985.5,-1402 1985.5,4 -4,4"/>
<!-- Step_1 -->
<g id="node1" class="node">
<title>Step_1</title>
<polygon fill="#ffffff" stroke="#000000" points="569.5,-1398 13.5,-1398 13.5,-1106 569.5,-1106 569.5,-1398"/>
<polygon fill="#92bde4" stroke="transparent" points="21.5,-1294 21.5,-1394 561.5,-1394 561.5,-1294 21.5,-1294"/>
<polygon fill="none" stroke="#000000" points="21.5,-1294 21.5,-1394 561.5,-1394 561.5,-1294 21.5,-1294"/>
<text text-anchor="start" x="231.1915" y="-1334.5" font-family="Helvetica,Arial,sans-serif" font-size="35.00" fill="#000000"> </text>
<text text-anchor="start" x="240.918" y="-1334.5" font-family="Helvetica,Arial,sans-serif" font-weight="bold" font-size="35.00" fill="#000000">Step 1:</text>
<polygon fill="#e3eef8" stroke="transparent" points="21.5,-1110 21.5,-1294 561.5,-1294 561.5,-1110 21.5,-1110"/>
<polygon fill="none" stroke="#000000" points="21.5,-1110 21.5,-1294 561.5,-1294 561.5,-1110 21.5,-1110"/>
<text text-anchor="start" x="50.3623" y="-1233.5" font-family="Helvetica,Arial,sans-serif" font-size="35.00" fill="#000000">Identify which climate variables</text>
<text text-anchor="start" x="95.031" y="-1191.5" font-family="Helvetica,Arial,sans-serif" font-size="35.00" fill="#000000">to use and how these are</text>
<text text-anchor="start" x="191.3492" y="-1149.5" font-family="Helvetica,Arial,sans-serif" font-size="35.00" fill="#000000">implemented</text>
</g>
<!-- Step_2 -->
<g id="node2" class="node">
<title>Step_2</title>
<polygon fill="#ffffff" stroke="#000000" points="573.5,-994 9.5,-994 9.5,-702 573.5,-702 573.5,-994"/>
<polygon fill="#92bde4" stroke="transparent" points="17.5,-890 17.5,-990 565.5,-990 565.5,-890 17.5,-890"/>
<polygon fill="none" stroke="#000000" points="17.5,-890 17.5,-990 565.5,-990 565.5,-890 17.5,-890"/>
<text text-anchor="start" x="231.1915" y="-930.5" font-family="Helvetica,Arial,sans-serif" font-size="35.00" fill="#000000"> </text>
<text text-anchor="start" x="240.918" y="-930.5" font-family="Helvetica,Arial,sans-serif" font-weight="bold" font-size="35.00" fill="#000000">Step 2:</text>
<polygon fill="#e3eef8" stroke="transparent" points="17.5,-706 17.5,-890 565.5,-890 565.5,-706 17.5,-706"/>
<polygon fill="none" stroke="#000000" points="17.5,-706 17.5,-890 565.5,-890 565.5,-706 17.5,-706"/>
<text text-anchor="start" x="46.444" y="-829.5" font-family="Helvetica,Arial,sans-serif" font-size="35.00" fill="#000000">Provide shapefile of your model</text>
<text text-anchor="start" x="97.0138" y="-787.5" font-family="Helvetica,Arial,sans-serif" font-size="35.00" fill="#000000">domain and fill out model</text>
<text text-anchor="start" x="224.4015" y="-745.5" font-family="Helvetica,Arial,sans-serif" font-size="35.00" fill="#000000">template</text>
</g>
<!-- Step_1&#45;&gt;Step_2 -->
<g id="edge1" class="edge">
<title>Step_1&#45;&gt;Step_2</title>
<path fill="none" stroke="#000000" stroke-width="3" d="M291.5,-1105.8612C291.5,-1072.8985 291.5,-1037.7819 291.5,-1004.416"/>
<polygon fill="#000000" stroke="#000000" stroke-width="3" points="295.0001,-1004.1215 291.5,-994.1215 288.0001,-1004.1216 295.0001,-1004.1215"/>
</g>
<!-- Step_n -->
<g id="node3" class="node">
<title>Step_n</title>
<polygon fill="#f6b979" stroke="#000000" points="1320.5,-1323.6006 960.5,-1323.6006 960.5,-1180.3994 1320.5,-1180.3994 1320.5,-1323.6006"/>
<text text-anchor="middle" x="1140.5" y="-1240.6" font-family="Helvetica,Arial,sans-serif" font-size="38.00" fill="#000000">Is model spatial?</text>
</g>
<!-- Step_1&#45;&gt;Step_n -->
<!-- Step_3 -->
<g id="node4" class="node">
<title>Step_3</title>
<polygon fill="#ffffff" stroke="#000000" points="583,-643 0,-643 0,-351 583,-351 583,-643"/>
<polygon fill="#92bde4" stroke="transparent" points="8.5,-539 8.5,-639 575.5,-639 575.5,-539 8.5,-539"/>
<polygon fill="none" stroke="#000000" points="8.5,-539 8.5,-639 575.5,-639 575.5,-539 8.5,-539"/>
<text text-anchor="start" x="231.6915" y="-579.5" font-family="Helvetica,Arial,sans-serif" font-size="35.00" fill="#000000"> </text>
<text text-anchor="start" x="241.418" y="-579.5" font-family="Helvetica,Arial,sans-serif" font-weight="bold" font-size="35.00" fill="#000000">Step 3:</text>
<polygon fill="#e3eef8" stroke="transparent" points="8.5,-355 8.5,-539 575.5,-539 575.5,-355 8.5,-355"/>
<polygon fill="none" stroke="#000000" points="8.5,-355 8.5,-539 575.5,-539 575.5,-355 8.5,-355"/>
<text text-anchor="start" x="87.7803" y="-478.5" font-family="Helvetica,Arial,sans-serif" font-size="35.00" fill="#000000">Visualise and extract input</text>
<text text-anchor="start" x="37.2333" y="-436.5" font-family="Helvetica,Arial,sans-serif" font-size="35.00" fill="#000000">variables to see if bias correction</text>
<text text-anchor="start" x="211.2708" y="-394.5" font-family="Helvetica,Arial,sans-serif" font-size="35.00" fill="#000000"> is needed</text>
</g>
<!-- Step_2&#45;&gt;Step_3 -->
<g id="edge2" class="edge">
<title>Step_2&#45;&gt;Step_3</title>
<path fill="none" stroke="#000000" stroke-width="3" d="M291.5,-701.9399C291.5,-685.8845 291.5,-669.4907 291.5,-653.3168"/>
<polygon fill="#000000" stroke="#000000" stroke-width="3" points="295.0001,-653.2797 291.5,-643.2797 288.0001,-653.2798 295.0001,-653.2797"/>
</g>
<!-- Step_4 -->
<g id="node5" class="node">
<title>Step_4</title>
<polygon fill="#ffffff" stroke="#000000" points="1237,-973 662,-973 662,-723 1237,-723 1237,-973"/>
<polygon fill="#92bde4" stroke="transparent" points="670.5,-869 670.5,-969 1229.5,-969 1229.5,-869 670.5,-869"/>
<polygon fill="none" stroke="#000000" points="670.5,-869 670.5,-969 1229.5,-969 1229.5,-869 670.5,-869"/>
<text text-anchor="start" x="889.6915" y="-909.5" font-family="Helvetica,Arial,sans-serif" font-size="35.00" fill="#000000"> </text>
<text text-anchor="start" x="899.418" y="-909.5" font-family="Helvetica,Arial,sans-serif" font-weight="bold" font-size="35.00" fill="#000000">Step 4:</text>
<polygon fill="#e3eef8" stroke="transparent" points="670.5,-727 670.5,-869 1229.5,-869 1229.5,-727 670.5,-727"/>
<polygon fill="none" stroke="#000000" points="670.5,-727 670.5,-869 1229.5,-869 1229.5,-727 670.5,-727"/>
<text text-anchor="start" x="699.1375" y="-808.5" font-family="Helvetica,Arial,sans-serif" font-size="35.00" fill="#000000">Determine if further downscaling</text>
<text text-anchor="start" x="869.2708" y="-766.5" font-family="Helvetica,Arial,sans-serif" font-size="35.00" fill="#000000"> is needed</text>
</g>
<!-- Step_n&#45;&gt;Step_4 -->
<g id="edge4" class="edge">
<title>Step_n&#45;&gt;Step_4</title>
<path fill="none" stroke="#000000" stroke-width="6" stroke-dasharray="1,5" d="M1106.5731,-1180.2384C1080.7214,-1125.5572 1044.3757,-1048.6795 1013.1569,-982.6459"/>
<polygon fill="#000000" stroke="#000000" stroke-width="6" points="1017.8079,-980.2004 1008.7874,-973.4037 1008.3153,-984.6883 1017.8079,-980.2004"/>
<text text-anchor="middle" x="1091.4808" y="-1036.5" font-family="bold Helvetica,Arial,sans-serif" font-size="45.00" fill="#000000">Yes</text>
</g>
<!-- Step_5 -->
<g id="node6" class="node">
<title>Step_5</title>
<g id="a_node6"><a xlink:title="Step 5:">
<polygon fill="#ffffff" stroke="#000000" points="1271.5,-643 719.5,-643 719.5,-351 1271.5,-351 1271.5,-643"/>
<polygon fill="#92bde4" stroke="transparent" points="727.5,-539 727.5,-639 1263.5,-639 1263.5,-539 727.5,-539"/>
<polygon fill="none" stroke="#000000" points="727.5,-539 727.5,-639 1263.5,-639 1263.5,-539 727.5,-539"/>
<text text-anchor="start" x="935.1915" y="-579.5" font-family="Helvetica,Arial,sans-serif" font-size="35.00" fill="#000000"> </text>
<text text-anchor="start" x="944.918" y="-579.5" font-family="Helvetica,Arial,sans-serif" font-weight="bold" font-size="35.00" fill="#000000">Step 5:</text>
<polygon fill="#e3eef8" stroke="transparent" points="727.5,-355 727.5,-539 1263.5,-539 1263.5,-355 727.5,-355"/>
<polygon fill="none" stroke="#000000" points="727.5,-355 727.5,-539 1263.5,-539 1263.5,-355 727.5,-355"/>
<text text-anchor="start" x="756.2715" y="-478.5" font-family="Helvetica,Arial,sans-serif" font-size="35.00" fill="#000000">Match and extract fishing effort</text>
<text text-anchor="start" x="764.0555" y="-436.5" font-family="Helvetica,Arial,sans-serif" font-size="35.00" fill="#000000">groupings to force your model</text>
</a>
</g>
</g>
<!-- Step_n&#45;&gt;Step_5 -->
<g id="edge5" class="edge">
<title>Step_n&#45;&gt;Step_5</title>
<path fill="none" stroke="#000000" stroke-width="6" stroke-dasharray="1,5" d="M1182.4418,-1180.3116C1240.0175,-1071.7989 1328.1559,-861.5895 1251.5,-702 1242.7608,-683.8058 1231.5331,-666.7196 1218.6736,-650.7834"/>
<polygon fill="#000000" stroke="#000000" stroke-width="6" points="1222.6678,-647.3757 1212.2335,-643.0527 1214.6004,-654.0963 1222.6678,-647.3757"/>
<text text-anchor="middle" x="1307.9927" y="-834.5" font-family="bold Helvetica,Arial,sans-serif" font-size="45.00" fill="#000000">No</text>
</g>
<!-- Step_7 -->
<g id="node8" class="node">
<title>Step_7</title>
<g id="a_node8"><a xlink:title="Step 7:">
<polygon fill="#ffffff" stroke="#000000" points="1976.5,-1377 1442.5,-1377 1442.5,-1127 1976.5,-1127 1976.5,-1377"/>
<polygon fill="#92bde4" stroke="transparent" points="1450.5,-1273 1450.5,-1373 1968.5,-1373 1968.5,-1273 1450.5,-1273"/>
<polygon fill="none" stroke="#000000" points="1450.5,-1273 1450.5,-1373 1968.5,-1373 1968.5,-1273 1450.5,-1273"/>
<text text-anchor="start" x="1649.1915" y="-1313.5" font-family="Helvetica,Arial,sans-serif" font-size="35.00" fill="#000000"> </text>
<text text-anchor="start" x="1658.918" y="-1313.5" font-family="Helvetica,Arial,sans-serif" font-weight="bold" font-size="35.00" fill="#000000">Step 7:</text>
<polygon fill="#e3eef8" stroke="transparent" points="1450.5,-1131 1450.5,-1273 1968.5,-1273 1968.5,-1131 1450.5,-1131"/>
<polygon fill="none" stroke="#000000" points="1450.5,-1131 1450.5,-1273 1968.5,-1273 1968.5,-1131 1450.5,-1131"/>
<text text-anchor="start" x="1479.039" y="-1212.5" font-family="Helvetica,Arial,sans-serif" font-size="35.00" fill="#000000">Set up model with forcings for</text>
<text text-anchor="start" x="1536.4057" y="-1170.5" font-family="Helvetica,Arial,sans-serif" font-size="35.00" fill="#000000">each experimental run</text>
</a>
</g>
</g>
<!-- Step_n&#45;&gt;Step_7 -->
<!-- Step_3&#45;&gt;Step_n -->
<g id="edge3" class="edge">
<title>Step_3&#45;&gt;Step_n</title>
<path fill="none" stroke="#000000" stroke-width="3" d="M537.9507,-643.3275C556.5957,-661.3075 573.5442,-680.8775 587.5,-702 660.5353,-812.5406 567.7778,-888.1806 647.5,-994 722.1927,-1093.1436 846.1114,-1157.7604 951.0207,-1197.5326"/>
<polygon fill="#000000" stroke="#000000" stroke-width="3" points="949.8732,-1200.8402 960.4657,-1201.0661 952.326,-1194.284 949.8732,-1200.8402"/>
</g>
<!-- Step_4&#45;&gt;Step_5 -->
<g id="edge6" class="edge">
<title>Step_4&#45;&gt;Step_5</title>
<path fill="none" stroke="#000000" stroke-width="3" d="M965.9122,-722.7675C968.8698,-700.2002 971.986,-676.4219 975.0417,-653.1058"/>
<polygon fill="#000000" stroke="#000000" stroke-width="3" points="978.5177,-653.5164 976.3469,-643.1464 971.5771,-652.6067 978.5177,-653.5164"/>
</g>
<!-- Step_6 -->
<g id="node7" class="node">
<title>Step_6</title>
<polygon fill="#ffffff" stroke="#000000" points="1278.5,-292 712.5,-292 712.5,0 1278.5,0 1278.5,-292"/>
<polygon fill="#92bde4" stroke="transparent" points="720.5,-188 720.5,-288 1270.5,-288 1270.5,-188 720.5,-188"/>
<polygon fill="none" stroke="#000000" points="720.5,-188 720.5,-288 1270.5,-288 1270.5,-188 720.5,-188"/>
<text text-anchor="start" x="935.1915" y="-228.5" font-family="Helvetica,Arial,sans-serif" font-size="35.00" fill="#000000"> </text>
<text text-anchor="start" x="944.918" y="-228.5" font-family="Helvetica,Arial,sans-serif" font-weight="bold" font-size="35.00" fill="#000000">Step 6:</text>
<polygon fill="#e3eef8" stroke="transparent" points="720.5,-4 720.5,-188 1270.5,-188 1270.5,-4 720.5,-4"/>
<polygon fill="none" stroke="#000000" points="720.5,-4 720.5,-188 1270.5,-188 1270.5,-4 720.5,-4"/>
<text text-anchor="start" x="837.02" y="-127.5" font-family="Helvetica,Arial,sans-serif" font-size="35.00" fill="#000000">Calibrate model with</text>
<text text-anchor="start" x="749.4465" y="-85.5" font-family="Helvetica,Arial,sans-serif" font-size="35.00" fill="#000000"> observational global catch data</text>
<text text-anchor="start" x="837.965" y="-43.5" font-family="Helvetica,Arial,sans-serif" font-size="35.00" fill="#000000"> for reference period</text>
</g>
<!-- Step_5&#45;&gt;Step_6 -->
<g id="edge7" class="edge">
<title>Step_5&#45;&gt;Step_6</title>
<path fill="none" stroke="#000000" stroke-width="3" d="M995.5,-350.9399C995.5,-334.8845 995.5,-318.4907 995.5,-302.3168"/>
<polygon fill="#000000" stroke="#000000" stroke-width="3" points="999.0001,-302.2797 995.5,-292.2797 992.0001,-302.2798 999.0001,-302.2797"/>
</g>
<!-- Step_6&#45;&gt;Step_7 -->
<g id="edge8" class="edge">
<title>Step_6&#45;&gt;Step_7</title>
<path fill="none" stroke="#000000" stroke-width="3" d="M1236.8933,-292.2105C1255.5354,-310.2598 1272.509,-329.8758 1286.5,-351 1447.9486,-594.7617 1279.433,-740.7217 1425.5,-994 1452.2861,-1040.4468 1490.3037,-1083.1915 1529.842,-1119.9706"/>
<polygon fill="#000000" stroke="#000000" stroke-width="3" points="1527.5083,-1122.5794 1537.24,-1126.7681 1532.2445,-1117.4249 1527.5083,-1122.5794"/>
</g>
<!-- Step_8 -->
<g id="node9" class="node">
<title>Step_8</title>
<polygon fill="#ffffff" stroke="#000000" points="1979.5,-994 1439.5,-994 1439.5,-702 1979.5,-702 1979.5,-994"/>
<polygon fill="#92bde4" stroke="transparent" points="1447.5,-890 1447.5,-990 1971.5,-990 1971.5,-890 1447.5,-890"/>
<polygon fill="none" stroke="#000000" points="1447.5,-890 1447.5,-990 1971.5,-990 1971.5,-890 1447.5,-890"/>
<text text-anchor="start" x="1649.1915" y="-930.5" font-family="Helvetica,Arial,sans-serif" font-size="35.00" fill="#000000"> </text>
<text text-anchor="start" x="1658.918" y="-930.5" font-family="Helvetica,Arial,sans-serif" font-weight="bold" font-size="35.00" fill="#000000">Step 8:</text>
<polygon fill="#e3eef8" stroke="transparent" points="1447.5,-706 1447.5,-890 1971.5,-890 1971.5,-706 1447.5,-706"/>
<polygon fill="none" stroke="#000000" points="1447.5,-706 1447.5,-890 1971.5,-890 1971.5,-706 1447.5,-706"/>
<text text-anchor="start" x="1489.7088" y="-829.5" font-family="Helvetica,Arial,sans-serif" font-size="35.00" fill="#000000">Output standard variables to</text>
<text text-anchor="start" x="1476.1095" y="-787.5" font-family="Helvetica,Arial,sans-serif" font-size="35.00" fill="#000000">compare with data and across</text>
<text text-anchor="start" x="1524.749" y="-745.5" font-family="Helvetica,Arial,sans-serif" font-size="35.00" fill="#000000">models over time/space</text>
</g>
<!-- Step_7&#45;&gt;Step_8 -->
<g id="edge9" class="edge">
<title>Step_7&#45;&gt;Step_8</title>
<path fill="none" stroke="#000000" stroke-width="3" d="M1709.5,-1126.9386C1709.5,-1088.0817 1709.5,-1044.7593 1709.5,-1004.0635"/>
<polygon fill="#000000" stroke="#000000" stroke-width="3" points="1713.0001,-1004.0546 1709.5,-994.0546 1706.0001,-1004.0546 1713.0001,-1004.0546"/>
</g>
<!-- Step_9 -->
<g id="node10" class="node">
<title>Step_9</title>
<polygon fill="#ffffff" stroke="#000000" points="1981.5,-643 1437.5,-643 1437.5,-351 1981.5,-351 1981.5,-643"/>
<polygon fill="#92bde4" stroke="transparent" points="1445.5,-539 1445.5,-639 1973.5,-639 1973.5,-539 1445.5,-539"/>
<polygon fill="none" stroke="#000000" points="1445.5,-539 1445.5,-639 1973.5,-639 1973.5,-539 1445.5,-539"/>
<text text-anchor="start" x="1649.1915" y="-579.5" font-family="Helvetica,Arial,sans-serif" font-size="35.00" fill="#000000"> </text>
<text text-anchor="start" x="1658.918" y="-579.5" font-family="Helvetica,Arial,sans-serif" font-weight="bold" font-size="35.00" fill="#000000">Step 9:</text>
<polygon fill="#e3eef8" stroke="transparent" points="1445.5,-355 1445.5,-539 1973.5,-539 1973.5,-355 1445.5,-355"/>
<polygon fill="none" stroke="#000000" points="1445.5,-355 1445.5,-539 1973.5,-539 1973.5,-355 1445.5,-355"/>
<text text-anchor="start" x="1474.167" y="-478.5" font-family="Helvetica,Arial,sans-serif" font-size="35.00" fill="#000000">Quality control checks and up&#45;</text>
<text text-anchor="start" x="1534.4808" y="-436.5" font-family="Helvetica,Arial,sans-serif" font-size="35.00" fill="#000000">load to FishMIP server</text>
</g>
<!-- Step_8&#45;&gt;Step_9 -->
<g id="edge10" class="edge">
<title>Step_8&#45;&gt;Step_9</title>
<path fill="none" stroke="#000000" stroke-width="3" d="M1709.5,-701.9399C1709.5,-685.8845 1709.5,-669.4907 1709.5,-653.3168"/>
<polygon fill="#000000" stroke="#000000" stroke-width="3" points="1713.0001,-653.2797 1709.5,-643.2797 1706.0001,-653.2798 1713.0001,-653.2797"/>
</g>
</g>
</svg>

